<?xml version="1.0" encoding="utf-8"?>
<svg viewBox="59.802 -62.955 498.774 527.529" xmlns="http://www.w3.org/2000/svg">
  <g transform="matrix(0.095779, 0, 0, 0.093698, 87.04586, -35.787685)" fill="#ff0088" stroke="none" style="">
    <path d="M 814 5089 C 811 5083 797 5080 783 5083 C 770 5085 741 5083 719 5077 C 689 5070 673 5071 655 5080 C 637 5090 624 5090 594 5080 C 469 5040 348 4941 295 4835 C 279 4802 260 4772 253 4768 C 247 4763 244 4752 247 4742 C 249 4732 241 4713 228 4699 C 215 4686 197 4654 186 4630 C 176 4605 161 4570 153 4552 C 145 4534 134 4495 127 4465 C 121 4436 112 4413 108 4416 C 104 4419 100 4405 100 4386 C 100 4367 95 4339 88 4323 C 82 4308 71 4264 64 4225 C 58 4187 44 4135 34 4110 C 18 4071 16 4033 16 3810 C 16 3566 17 3550 45 3425 C 60 3354 74 3268 75 3235 C 78 3159 96 3060 110 3046 C 115 3041 120 3023 120 3006 C 120 2979 131 2934 151 2885 C 155 2874 164 2847 170 2825 C 177 2803 197 2756 215 2720 C 233 2684 256 2636 265 2613 C 275 2590 291 2563 302 2554 C 313 2544 318 2529 315 2519 C 306 2492 475 2171 565 2045 C 589 2012 617 1969 628 1950 C 768 1706 765 1710 823 1673 C 850 1656 860 1644 856 1633 C 852 1623 867 1598 896 1564 C 921 1534 938 1510 934 1510 C 929 1510 951 1484 982 1452 C 1012 1421 1040 1384 1043 1370 C 1052 1331 1225 1076 1322 959 C 1405 857 1481 781 1549 728 C 1567 714 1583 694 1584 684 C 1587 654 1985 260 2068 205 C 2108 178 2140 151 2140 144 C 2140 116 2193 96 2230 110 C 2233 111 2249.136 21.867 2251 13.006 C 2268 -67.803 2296 136 2301 160 C 2308 187 2475 341 2486 330 C 2493 323 2507 335 2527 367 C 2544 394 2572 428 2589 444 C 2623 477 2628 490 2605 490 C 2587 490 2585 516 2603 527 C 2609 531 2623 533 2633 531 C 2644 530 2677 539 2707 551 C 2758 571 2764 572 2775 557 C 2795 529 2837 559 2854 613 C 2858 624 2869 634 2879 637 C 2899 642 2915 668 2905 679 C 2902 682 2890 679 2880 672 C 2846 651 2856 685 2890 710 C 2907 722 2920 736 2920 742 C 2920 749 2915 748 2906 741 C 2898 734 2889 733 2886 738 C 2883 743 2898 767 2919 791 C 2952 827 2961 833 2972 822 C 2983 811 2981 806 2960 790 C 2932 769 2934 764 2970 758 C 3001 754 3025 793 3007 820 C 2991 847 3022 890 3059 890 C 3086 890 3126 921 3114 932 C 3111 936 3113 955 3119 977 C 3128 1008 3127 1017 3115 1026 C 3101 1036 3102 1040 3118 1060 C 3143 1091 3191 1082 3183 1049 C 3178 1030 3182 1031 3231 1062 C 3265 1084 3285 1104 3285 1116 C 3285 1126 3292 1136 3301 1138 C 3312 1140 3316 1148 3312 1165 C 3309 1184 3317 1199 3343 1225 C 3379 1261 3404 1271 3394 1245 C 3390 1237 3392 1230 3398 1230 C 3413 1230 3419 1255 3413 1293 C 3407 1332 3419 1345 3464 1345 C 3487 1345 3497 1353 3513 1380 C 3523 1399 3543 1428 3556 1443 C 3583 1475 3589 1500 3565 1480 C 3553 1470 3550 1470 3550 1483 C 3550 1491 3568 1517 3589 1539 C 3611 1562 3631 1589 3635 1599 C 3638 1609 3652 1622 3665 1628 C 3679 1634 3690 1646 3690 1655 C 3690 1663 3694 1670 3698 1670 C 3703 1670 3715 1688 3725 1710 C 3738 1738 3746 1747 3754 1740 C 3763 1734 3766 1742 3767 1771 C 3768 1792 3772 1815 3775 1820 C 3785 1837 3800 1831 3800 1810 C 3800 1781 3812 1786 3840 1827 C 3856 1850 3861 1865 3853 1867 C 3837 1873 3853 1925 3871 1925 C 3880 1925 3885 1937 3886 1960 C 3886 1997 3914 2060 3930 2060 C 3936 2060 3940 2078 3940 2100 C 3940 2122 3936 2140 3930 2140 C 3919 2140 3917 2179 3926 2204 C 3935 2228 3949 2223 3943 2198 C 3939 2177 3940 2176 3953 2192 C 3977 2223 3992 2214 3989 2170 C 3986 2128 3995 2107 4006 2133 C 4009 2142 4017 2147 4023 2144 C 4039 2139 4072 2209 4076 2255 C 4080 2301 4095 2320 4127 2320 C 4146 2320 4151 2324 4146 2335 C 4143 2344 4147 2353 4155 2357 C 4193 2371 4330 2652 4365 2786 C 4373 2816 4391 2855 4405 2872 C 4442 2915 4464 2961 4461 2987 C 4460 2999 4467 3014 4478 3022 C 4506 3041 4528 3090 4536 3148 C 4539 3176 4548 3201 4555 3204 C 4562 3206 4570 3236 4574 3269 C 4582 3338 4598 3390 4611 3390 C 4616 3390 4620 3398 4620 3408 C 4620 3417 4629 3452 4639 3485 C 4649 3518 4660 3564 4664 3588 C 4670 3628 4669 3631 4650 3625 C 4633 3620 4630 3623 4630 3645 C 4630 3663 4636 3674 4650 3677 C 4680 3685 4694 3773 4687 3915 C 4684 3981 4674 4058 4666 4085 C 4658 4113 4648 4152 4645 4172 C 4636 4228 4552 4390 4536 4384 C 4528 4381 4506 4393 4486 4411 C 4455 4438 4450 4447 4455 4471 C 4461 4496 4456 4503 4400 4545 C 4366 4570 4334 4590 4330 4590 C 4325 4590 4296 4611 4265 4636 C 4208 4682 4154 4703 4062 4714 C 4010 4720 3993 4729 4011 4741 C 4022 4748 4021 4750 4008 4750 C 3999 4750 3988 4746 3985 4740 C 3976 4725 3933 4728 3916 4746 C 3907 4754 3897 4759 3893 4757 C 3888 4754 3855 4756 3817 4761 C 3779 4766 3740 4765 3727 4760 C 3706 4752 3706 4751 3733 4751 C 3749 4750 3759 4746 3756 4741 C 3753 4736 3722 4733 3688 4734 C 3653 4735 3611 4730 3593 4723 C 3550 4706 3520 4707 3520 4725 C 3520 4747 3483 4744 3449 4719 C 3433 4708 3402 4697 3380 4695 C 3341 4691 3280 4658 3280 4640 C 3280 4635 3269 4623 3255 4614 C 3236 4602 3227 4600 3216 4609 C 3206 4618 3201 4617 3197 4606 C 3194 4598 3160 4582 3123 4571 C 3044 4547 2865 4433 2818 4376 C 2802 4356 2783 4340 2776 4340 C 2761 4340 2705 4283 2705 4267 C 2705 4245 2630 4140 2614 4140 C 2603 4140 2601 4146 2606 4162 C 2612 4183 2611 4184 2595 4170 C 2586 4162 2560 4130 2539 4098 C 2517 4066 2495 4040 2490 4040 C 2485 4040 2483 4028 2486 4012 C 2491 3988 2485 3979 2441 3942 C 2414 3919 2385 3887 2377 3872 C 2370 3857 2359 3846 2353 3847 C 2347 3848 2332 3828 2321 3802 C 2297 3750 2293 3742 2232 3641 C 2208 3601 2182 3547 2174 3520 C 2166 3492 2157 3470 2154 3470 C 2141 3470 2123 3499 2112 3540 C 2097 3591 2008 3778 1973 3829 C 1960 3848 1950 3870 1950 3879 C 1950 3900 1900 3994 1839 4088 C 1812 4130 1792 4170 1794 4177 C 1799 4189 1724 4288 1687 4319 C 1678 4326 1673 4336 1676 4341 C 1684 4354 1631 4420 1616 4414 C 1600 4408 1484 4540 1497 4548 C 1503 4552 1504 4563 1500 4575 C 1488 4606 1420 4680 1404 4680 C 1396 4680 1390 4688 1390 4699 C 1390 4712 1372 4725 1330 4744 C 1286 4764 1270 4776 1270 4791 C 1270 4812 1226 4843 1170 4861 C 1116 4878 1012 4943 1007 4963 C 1004 4972 1006 4980 1011 4980 C 1016 4980 1020 4987 1020 4995 C 1020 5020 827 5109 814 5089 Z M 845 4889 C 1056 4810 1371 4491 1593 4132 C 1630 4072 1670 4014 1682 4004 C 1709 3979 1830 3796 1853 3745 C 1863 3722 1879 3673 1889 3635 C 1902 3582 1911 3563 1928 3555 C 1946 3547 1950 3537 1950 3502 C 1950 3474 1959 3444 1975 3415 C 1992 3388 1997 3369 1990 3365 C 1972 3354 1979 3304 2011 3203 C 2045 3094 2100.067 2916.892 2152.067 2906.892 C 2219.067 2893.892 2253 3077 2265 3153 C 2280 3245 2344 3431 2398 3540 C 2429 3603 2455 3661 2455 3668 C 2455 3675 2461 3684 2467 3688 C 2474 3692 2486 3712 2495 3733 C 2503 3753 2516 3770 2523 3770 C 2531 3770 2558 3802 2585 3840 C 2662 3954 2845 4145 2908 4177 C 2923 4185 2947 4206 2962 4224 C 2995 4264 3221 4400 3343 4453 C 3394 4474 3487 4506 3550 4523 C 3651 4549 3683 4553 3810 4554 L 3955 4555 L 4040 4514 C 4087 4491 4163 4445 4210 4411 C 4257 4378 4301 4350 4307 4350 C 4314 4350 4320 4345 4320 4340 C 4320 4334 4335 4307 4354 4280 C 4373 4252 4396 4204 4405 4172 C 4414 4141 4428 4105 4435 4093 C 4454 4065 4472 3830 4460 3770 C 4455 3740 4455 3723 4462 3719 C 4476 3710 4463 3600 4446 3580 C 4439 3572 4428 3538 4421 3506 C 4414 3473 4400 3428 4390 3404 C 4380 3381 4369 3337 4365 3306 C 4361 3275 4350 3240 4341 3227 C 4315 3194 4275 3079 4278 3049 C 4280 3034 4274 3005 4265 2984 C 4253 2956 4247 2949 4238 2958 C 4229 2967 4220 2954 4199 2905 C 4184 2870 4131 2767 4082 2678 C 4032 2588 3975 2480 3954 2438 C 3933 2395 3911 2360 3905 2360 C 3900 2359 3874 2321 3848 2274 C 3821 2228 3758 2125 3706 2046 C 3654 1967 3597 1876 3579 1843 C 3561 1811 3528 1765 3505 1740 C 3428 1657 3391 1604 3356 1527 C 3335 1482 3312 1446 3297 1438 C 3266 1420 3123 1266 3115 1240 C 3112 1229 3103 1220 3097 1220 C 3090 1220 3073 1199 3058 1172 C 3043 1146 3009 1099 2983 1067 C 2906 973 2881 936 2880 918 C 2880 901 2870 896 2844 899 C 2834 900 2715 771 2545 573 C 2502 522 2463 480 2459 480 C 2456 480 2390 419 2314 344 C 2199 231 2174 212 2168 227 C 2119 350 2121 348 1981 467 C 1809 615 1732 692 1629 822 C 1584 879 1506 969 1457 1022 C 1321 1170 1102 1460 962 1680 C 841 1870 739 2051 603 2318 C 534 2451 474 2560 469 2560 C 454 2560 406 2644 419 2648 C 426 2650 414.583 2634.439 407.583 2647.439 C 385.583 2689.439 311 2954 286 3045 C 271 3100 250 3165 240 3190 C 230 3215 213 3273 201 3320 C 182 3399 180 3426 184 3695 C 188 3996 198 4097 241 4270 C 275 4405 307 4497 359 4605 C 491 4880 639 4966 845 4889 Z M 2840 622 C 2840 617 2826 601 2808 584 C 2778 557 2777 557 2791 580 C 2800 594 2810 611 2814 618 C 2822 631 2840 634 2840 622 Z" style="stroke: rgb(216, 31, 117); fill: rgb(216, 0, 108); stroke-width: 396.664px;"/>
    <path d="M 3928 4753 C 3935 4750 3944 4751 3947 4754 C 3951 4757 3945 4760 3934 4759 C 3923 4759 3920 4756 3928 4753 Z" style="stroke: rgb(216, 31, 117); fill: rgb(216, 0, 108); stroke-width: 250.525px;"/>
    <path d="M 2664 498 C 2659 491 2655 478 2655 468 C 2653 446 2606 385 2569 358 C 2553 346 2540 332 2540 327 C 2540 321 2548 324 2558 333 C 2568 343 2581 350 2586 350 C 2602 351 2690 479 2680 485 C 2674 489 2672 496 2675 501 C 2679 506 2679 510 2676 510 C 2673 510 2668 504 2664 498 Z" style="stroke: rgb(216, 31, 117); fill: rgb(216, 0, 108); stroke-width: 250.525px;"/>
    <path d="M 2297 114 C 2281 105 2271 96 2274 93 C 2280 86 2340 113 2340 122 C 2340 133 2329 131 2297 114 Z" style="stroke: rgb(216, 31, 117); fill: rgb(216, 0, 108); stroke-width: 250.525px;"/>
  </g>
</svg>